# xmcd
#
# Track frame offsets:
#	151
#	15624
#	33431
#	49362
#	66123
#	84970
#	96477
#	105884
#	123541
#	137150
#	157509
#	175466
#	188399
#	202678
#	214635
#	228764
#	241993
#	251626
#	265755
#	280414
#
# Disc length: 3929 seconds
#
# Revision: 1
# Processed by: cddbd v1.5.2PL0 Copyright (c) Steve Scherf et al.
# Submitted via: audiograbber 1.83.01
#
DISCID=040f5714
DTITLE=Terri Williams - Country Diary
DYEAR=1999
DGENRE=
TTITLE0=Read Between Your Lies
TTITLE1=Angry Eyes
TTITLE2=The Man In The Middle
TTITLE3=Here We Are Now
TTITLE4=My Hero
TTITLE5=Lucky Look
TTITLE6=Am I A Fool To Love
TTITLE7=You Will Leve Forever When You Die
TTITLE8=Daddy´s Knees
TTITLE9=Lisent To My Cry
TTITLE10=Won´t You Please Send My Mama Home
TTITLE11=I Did What I Did
TTITLE12=From This Day Forward
TTITLE13=I Can´t Move You
TTITLE14=Open The Gates To Heaven
TTITLE15=Search My Eyes For Magic
TTITLE16=I Hope You´re Satisfied
TTITLE17=When Grabriel Sound The Trompet
TTITLE18=Prayer For Loved Ones
TTITLE19=Why Mamma Why
EXTD=
EXTT0=
EXTT1=
EXTT2=
EXTT3=
EXTT4=
EXTT5=
EXTT6=
EXTT7=
EXTT8=
EXTT9=
EXTT10=
EXTT11=
EXTT12=
EXTT13=
EXTT14=
EXTT15=
EXTT16=
EXTT17=
EXTT18=
EXTT19=
PLAYORDER=
